<?xml version="1.0" encoding="UTF-8" standalone="no"?>
<!DOCTYPE svg PUBLIC "-//W3C//DTD SVG 20010904//EN"
              "http://www.w3.org/TR/2001/REC-SVG-20010904/DTD/svg10.dtd">

<svg xmlns="http://www.w3.org/2000/svg"
     width="1.11111in" height="4.16667in"
     viewBox="0 0 100 375">
  <path id="berries"
        fill="none" stroke="black" stroke-width="1"
        d="M 71.48,66.34
           C 70.07,64.86 69.88,61.53 69.85,59.84
             69.82,58.16 70.13,56.12 70.31,54.80
             73.10,45.61 86.19,49.57 84.91,59.78
             84.58,62.44 83.40,64.30 81.01,65.60
             79.41,66.48 78.45,67.84 76.79,67.84
             75.13,67.84 72.88,67.82 71.48,66.34
             71.48,66.34 71.48,66.34 71.48,66.34 Z
           M 85.07,103.60
           C 99.61,102.16 100.19,122.40 90.05,126.03
             83.74,128.29 77.79,121.59 77.30,115.78
             76.78,109.70 79.79,105.99 85.07,103.60 Z
           M 70.07,173.49
           C 73.54,172.72 76.84,172.35 79.96,174.53
             86.71,179.22 85.10,192.37 76.07,195.45
             73.30,196.40 66.99,196.68 64.63,194.73
             61.84,192.44 61.38,181.15 63.24,178.17
             64.74,175.77 67.59,174.56 70.07,173.49
             70.07,173.49 70.07,173.49 70.07,173.49 Z" />
</svg>
