<?xml version="1.0" encoding="UTF-8" standalone="no"?>
<svg
   xmlns:dc="http://purl.org/dc/elements/1.1/"
   xmlns:cc="http://creativecommons.org/ns#"
   xmlns:rdf="http://www.w3.org/1999/02/22-rdf-syntax-ns#"
   xmlns:svg="http://www.w3.org/2000/svg"
   xmlns="http://www.w3.org/2000/svg"
   width="1366"
   height="768"
   viewBox="0 0 1366 768"
   version="1.1"
   id="svg8">
  <defs
     id="defs2" />
  <metadata
     id="metadata5">
    <rdf:RDF>
      <cc:Work
         rdf:about="">
        <dc:format>image/svg+xml</dc:format>
        <dc:type
           rdf:resource="http://purl.org/dc/dcmitype/StillImage" />
        <dc:title></dc:title>
      </cc:Work>
    </rdf:RDF>
  </metadata>
  <g
     id="layer1">
    <path
       id="rect28"
       style="opacity:0.999;fill:#00ff00;fill-opacity:1;fill-rule:evenodd;stroke-width:0.992236"
       d="m 111.30025,44.944808 c -34.931408,0 -63.053101,28.524558 -63.053101,63.956422 v 550.19736 c 0,35.43187 28.121693,63.95645 63.053101,63.95645 h 199.99657 c 202.03672,0 199.99656,1.11424 199.99656,-190.45423 V 342.1466 c 0,-47.41479 28.12169,-85.58622 63.05313,-85.58622 h 105.83832 5.63028 105.83832 c 34.93144,0 63.0531,38.17144 63.0531,85.58622 v 190.45421 c 0,191.56847 -2.04013,190.45423 199.99667,190.45423 h 199.9966 c 34.9313,0 63.0531,-28.52458 63.0531,-63.95645 V 108.90123 c 0,-35.431864 -28.1218,-63.956422 -63.0531,-63.956422 h -568.88469 -5.63028 z" />
    <rect
       style="opacity:0.999;fill:#008080;fill-opacity:1"
       id="rect865"
       width="1190.0001"
       height="130"
       x="87.999939"
       y="85.714287"
       rx="64"
       ry="2.8571429" />
  </g>
  <g
     transform="matrix(1.0001364,0,0,1.0001364,115.06019,296.76769)"
     id="g32">
    <path
       id="stem"
       fill="#000000"
       stroke="none"
       stroke-width="1"
       d="M 39,10 C 38.94,8.81 41.12,7.81 41.25,9.62 41.25,9.62 41,31 41,31 c 0,0 -2,35 -2,35 0,0 0,18 0,18 0,0 -1,19 -1,19 C 41.56,95.43 55.11,81.27 62,76.15 65.9,73.26 69.04,70 74,70 69.19,76.4 65.58,77.27 60,82.18 54.93,86.64 40.89,102.39 37.8,108 c -2.43,4.43 -1.7,12.79 -3.01,19 0,0 -7.65,32 -7.65,32 0,0 0,19 0,19 0,0 -4.14,33 -4.14,33 1.81,-8.47 7.27,-14.82 11.77,-22 2.55,-4.07 5.05,-9.52 8.41,-12.79 0,0 7.82,-5.6 7.82,-5.6 0,0 19.7,-17.61 19.7,-17.61 3.42,-3.97 7.27,-10.36 9.86,-15 2.19,-3.93 2.06,-6.44 6.44,-8 -1.36,5.81 -2.67,7.91 -5.58,13 -8.32,14.54 -12.77,17.36 -25.42,27.8 -4.61,3.81 -7.39,4.18 -11.67,9.22 -4.82,5.65 -16.17,25.63 -19.5,32.98 -1.37,3.01 -4.99,9.47 -5.53,12 0,0 -1.76,23 -1.76,23 0,0 -2.26,9 -2.26,9 -1.07,5.17 -2.04,18 -1.28,23 2.01,-8.01 15,-27.06 21.01,-32.96 5.18,-5.08 9.45,-7.19 14.1,-13.05 5.34,-6.74 10.8,-16.38 15.03,-23.99 2.02,-3.64 3.24,-7.78 5.86,-11 1.2,8.4 -8.64,22.9 -13.36,30 -9.32,14.04 -12.48,12.95 -21.47,23 -3.97,4.44 -16.53,23.71 -18.53,29 -1.57,4.16 -3.63,14.46 -3.64,19 0,0 0,18 0,18 0,0 -1,16 -1,16 0,0 1.38,36 1.38,36 0.18,2.46 -1.23,8.36 -4.37,4.39 C 7.94,373.04 7.07,362.25 7.01,360 7.01,360 6,340 6,340 c 0,0 1,-15 1,-15 0,0 0,-36 0,-36 0,0 1,-15 1,-15 0.25,-21.6 4.84,-25.01 5,-38 0,0 0,-8 0,-8 0.1,-8.23 6.4,-27.07 8.58,-37 2.18,-9.97 2.4,-14.96 2.42,-25 0.03,-20.37 9.67,-32.05 10,-61 0,0 2,-22 2,-22 0,0 0,-15 0,-15 0,0 2,-30 2,-30 0,0 1,-28 1,-28 z" />
    <path
       id="berries"
       fill="#ff0000"
       stroke="none"
       stroke-width="1"
       d="m 73.41,70.56 c -1.41,-1.48 -1.6,-4.81 -1.63,-6.5 -0.03,-1.68 0.28,-3.72 0.46,-5.04 2.79,-9.18 15.88,-5.23 14.6,4.98 -0.33,2.66 -1.51,4.52 -3.9,5.82 -1.6,0.88 -2.56,2.24 -4.22,2.24 -1.66,0 -3.91,-0.02 -5.31,-1.5 z M 87,107.82 c 14.54,-1.44 15.12,18.8 4.98,22.42 C 85.67,132.5 79.72,125.81 79.23,120 78.71,113.92 81.72,110.21 87,107.82 Z M 72,177.7 c 3.47,-0.77 6.77,-1.14 9.89,1.04 6.75,4.69 5.14,17.84 -3.89,20.92 -2.77,0.94 -9.08,1.22 -11.44,-0.72 -2.79,-2.29 -3.25,-13.58 -1.39,-16.56 1.5,-2.4 4.35,-3.61 6.83,-4.68 z" />
  </g>
  <g
     id="g49"
     transform="matrix(0.5296008,0,0,0.69122739,265.61531,331.68458)">
    <path
       d="M 39,10 C 38.94,8.81 41.12,7.81 41.25,9.62 41.25,9.62 41,31 41,31 c 0,0 -2,35 -2,35 0,0 0,18 0,18 0,0 -1,19 -1,19 C 41.56,95.43 55.11,81.27 62,76.15 65.9,73.26 69.04,70 74,70 69.19,76.4 65.58,77.27 60,82.18 54.93,86.64 40.89,102.39 37.8,108 c -2.43,4.43 -1.7,12.79 -3.01,19 0,0 -7.65,32 -7.65,32 0,0 0,19 0,19 0,0 -4.14,33 -4.14,33 1.81,-8.47 7.27,-14.82 11.77,-22 2.55,-4.07 5.05,-9.52 8.41,-12.79 0,0 7.82,-5.6 7.82,-5.6 0,0 19.7,-17.61 19.7,-17.61 3.42,-3.97 7.27,-10.36 9.86,-15 2.19,-3.93 2.06,-6.44 6.44,-8 -1.36,5.81 -2.67,7.91 -5.58,13 -8.32,14.54 -12.77,17.36 -25.42,27.8 -4.61,3.81 -7.39,4.18 -11.67,9.22 -4.82,5.65 -16.17,25.63 -19.5,32.98 -1.37,3.01 -4.99,9.47 -5.53,12 0,0 -1.76,23 -1.76,23 0,0 -2.26,9 -2.26,9 -1.07,5.17 -2.04,18 -1.28,23 2.01,-8.01 15,-27.06 21.01,-32.96 5.18,-5.08 9.45,-7.19 14.1,-13.05 5.34,-6.74 10.8,-16.38 15.03,-23.99 2.02,-3.64 3.24,-7.78 5.86,-11 1.2,8.4 -8.64,22.9 -13.36,30 -9.32,14.04 -12.48,12.95 -21.47,23 -3.97,4.44 -16.53,23.71 -18.53,29 -1.57,4.16 -3.63,14.46 -3.64,19 0,0 0,18 0,18 0,0 -1,16 -1,16 0,0 1.38,36 1.38,36 0.18,2.46 -1.23,8.36 -4.37,4.39 C 7.94,373.04 7.07,362.25 7.01,360 7.01,360 6,340 6,340 c 0,0 1,-15 1,-15 0,0 0,-36 0,-36 0,0 1,-15 1,-15 0.25,-21.6 4.84,-25.01 5,-38 0,0 0,-8 0,-8 0.1,-8.23 6.4,-27.07 8.58,-37 2.18,-9.97 2.4,-14.96 2.42,-25 0.03,-20.37 9.67,-32.05 10,-61 0,0 2,-22 2,-22 0,0 0,-15 0,-15 0,0 2,-30 2,-30 0,0 1,-28 1,-28 z"
       stroke-width="1"
       stroke="none"
       fill="#000000"
       id="path45" />
    <path
       d="m 73.41,70.56 c -1.41,-1.48 -1.6,-4.81 -1.63,-6.5 -0.03,-1.68 0.28,-3.72 0.46,-5.04 2.79,-9.18 15.88,-5.23 14.6,4.98 -0.33,2.66 -1.51,4.52 -3.9,5.82 -1.6,0.88 -2.56,2.24 -4.22,2.24 -1.66,0 -3.91,-0.02 -5.31,-1.5 z M 87,107.82 c 14.54,-1.44 15.12,18.8 4.98,22.42 C 85.67,132.5 79.72,125.81 79.23,120 78.71,113.92 81.72,110.21 87,107.82 Z M 72,177.7 c 3.47,-0.77 6.77,-1.14 9.89,1.04 6.75,4.69 5.14,17.84 -3.89,20.92 -2.77,0.94 -9.08,1.22 -11.44,-0.72 -2.79,-2.29 -3.25,-13.58 -1.39,-16.56 1.5,-2.4 4.35,-3.61 6.83,-4.68 z"
       stroke-width="1"
       stroke="none"
       fill="#ff0000"
       id="path47" />
  </g>
  <g
     transform="matrix(0.38395883,0,0,0.52968781,361.16245,363.24911)"
     id="g55">
    <path
       id="path51"
       fill="#000000"
       stroke="none"
       stroke-width="1"
       d="M 39,10 C 38.94,8.81 41.12,7.81 41.25,9.62 41.25,9.62 41,31 41,31 c 0,0 -2,35 -2,35 0,0 0,18 0,18 0,0 -1,19 -1,19 C 41.56,95.43 55.11,81.27 62,76.15 65.9,73.26 69.04,70 74,70 69.19,76.4 65.58,77.27 60,82.18 54.93,86.64 40.89,102.39 37.8,108 c -2.43,4.43 -1.7,12.79 -3.01,19 0,0 -7.65,32 -7.65,32 0,0 0,19 0,19 0,0 -4.14,33 -4.14,33 1.81,-8.47 7.27,-14.82 11.77,-22 2.55,-4.07 5.05,-9.52 8.41,-12.79 0,0 7.82,-5.6 7.82,-5.6 0,0 19.7,-17.61 19.7,-17.61 3.42,-3.97 7.27,-10.36 9.86,-15 2.19,-3.93 2.06,-6.44 6.44,-8 -1.36,5.81 -2.67,7.91 -5.58,13 -8.32,14.54 -12.77,17.36 -25.42,27.8 -4.61,3.81 -7.39,4.18 -11.67,9.22 -4.82,5.65 -16.17,25.63 -19.5,32.98 -1.37,3.01 -4.99,9.47 -5.53,12 0,0 -1.76,23 -1.76,23 0,0 -2.26,9 -2.26,9 -1.07,5.17 -2.04,18 -1.28,23 2.01,-8.01 15,-27.06 21.01,-32.96 5.18,-5.08 9.45,-7.19 14.1,-13.05 5.34,-6.74 10.8,-16.38 15.03,-23.99 2.02,-3.64 3.24,-7.78 5.86,-11 1.2,8.4 -8.64,22.9 -13.36,30 -9.32,14.04 -12.48,12.95 -21.47,23 -3.97,4.44 -16.53,23.71 -18.53,29 -1.57,4.16 -3.63,14.46 -3.64,19 0,0 0,18 0,18 0,0 -1,16 -1,16 0,0 1.38,36 1.38,36 0.18,2.46 -1.23,8.36 -4.37,4.39 C 7.94,373.04 7.07,362.25 7.01,360 7.01,360 6,340 6,340 c 0,0 1,-15 1,-15 0,0 0,-36 0,-36 0,0 1,-15 1,-15 0.25,-21.6 4.84,-25.01 5,-38 0,0 0,-8 0,-8 0.1,-8.23 6.4,-27.07 8.58,-37 2.18,-9.97 2.4,-14.96 2.42,-25 0.03,-20.37 9.67,-32.05 10,-61 0,0 2,-22 2,-22 0,0 0,-15 0,-15 0,0 2,-30 2,-30 0,0 1,-28 1,-28 z" />
    <path
       id="path53"
       fill="#ff0000"
       stroke="none"
       stroke-width="1"
       d="m 73.41,70.56 c -1.41,-1.48 -1.6,-4.81 -1.63,-6.5 -0.03,-1.68 0.28,-3.72 0.46,-5.04 2.79,-9.18 15.88,-5.23 14.6,4.98 -0.33,2.66 -1.51,4.52 -3.9,5.82 -1.6,0.88 -2.56,2.24 -4.22,2.24 -1.66,0 -3.91,-0.02 -5.31,-1.5 z M 87,107.82 c 14.54,-1.44 15.12,18.8 4.98,22.42 C 85.67,132.5 79.72,125.81 79.23,120 78.71,113.92 81.72,110.21 87,107.82 Z M 72,177.7 c 3.47,-0.77 6.77,-1.14 9.89,1.04 6.75,4.69 5.14,17.84 -3.89,20.92 -2.77,0.94 -9.08,1.22 -11.44,-0.72 -2.79,-2.29 -3.25,-13.58 -1.39,-16.56 1.5,-2.4 4.35,-3.61 6.83,-4.68 z" />
  </g>
  <path
     id="Selection"
     fill="none"
     stroke="#000000"
     stroke-width="1.00014"
     d="m 1162.4944,101.95094 c 6.1208,-0.15002 16.2522,2.79039 20.9129,6.71093 7.291,6.13086 14.492,25.00348 13.7719,34.61482 -1.2402,16.51229 -0.8101,10.36144 -4.8007,25.00348 -1.4802,5.45075 -2.3003,10.03139 -8.8812,10.87151 -3.4005,0.43006 -7.6211,-0.39006 -11.0015,-0.95013 -15.0421,-2.48035 -25.5536,-7.78109 -31.5444,-22.92319 -3.1905,-8.07112 -2.7504,-14.63204 -1.7403,-23.0032 0,0 0.8101,-8.00111 0.8101,-8.00111 2.4604,-10.86151 11.6217,-19.98278 22.4732,-22.32311 z m -3.8906,14.01195 c -6.0608,3.6005 -3.3604,9.3513 -4.6306,15.31213 0,0 -2.6804,10.00139 -2.6804,10.00139 -0.43,5.27073 3.4405,19.94277 7.5411,23.30324 2.7904,2.29032 8.1111,2.95041 11.6616,3.13044 1.5802,0.16002 2.4203,0.15002 4.0005,0 9.3713,-1.31019 3.7406,-6.18086 7.6311,-13.26185 1.1302,-2.06028 2.1003,-2.73038 2.8204,-5.26073 0.6901,-2.43034 1.2802,-16.77233 0.5101,-18.91263 -3.3505,-9.25129 -17.5725,-15.36214 -26.8538,-14.31199 z m 59.8984,7.8811 c 12.7417,-2.28032 20.1528,5.66078 26.6737,15.43214 7.021,10.53147 11.6416,16.85235 11.3215,30.00417 -0.19,7.74108 -2.8804,15.90222 -10.9915,18.39256 -3.7405,1.09015 -9.1613,0.58008 -13.0018,0 -17.9825,-2.56035 -26.8037,-13.87193 -29.5641,-31.39436 -1.8603,-11.82165 3.7005,-28.0439 15.5622,-32.43451 z m 27.0037,55.43771 c 7.4811,-13.75192 -2.3403,-23.0132 -9.6013,-34.00473 -2.1303,-3.22045 -5.6408,-11.63162 -10.4115,-10.53147 -1.5002,0.35005 -3.7305,2.1303 -4.9907,3.06043 -1.7002,1.27017 -3.9205,2.79039 -4.9807,4.65064 -1.0101,1.79025 -0.9801,3.83054 -1.0201,5.82081 -0.15,9.64134 2.3303,10.84151 6.5109,19.00265 1.4602,2.85039 2.4203,7.221 4.7907,9.11126 4.0305,3.21045 11.6316,0.93013 19.7027,2.89041 z m -51.0071,-3.00042 c 2.4404,0.7601 3.3905,0.91013 5.0007,3.15044 2.2503,3.14043 5.6708,21.33297 6.0909,25.8536 0,0 7.491,31.00431 7.491,31.00431 0,0 4.3406,41.0057 4.3406,41.0057 0,0 8.0211,29.00403 8.0211,29.00403 0,0 0,9.00125 0,9.00125 0,0 2.8204,18.17253 2.8204,18.17253 0,0 -1.7602,26.83373 -1.7602,26.83373 0,0 0,10.00139 0,10.00139 0,0 -1.0002,20.00279 -1.0002,20.00279 0,0 -1.0001,17.00236 -1.0001,17.00236 0,0 -4.2806,55.00765 -4.2806,55.00765 0,0 -7.8911,74.01029 -7.8911,74.01029 0,0 -2.8304,32.00445 -2.8304,32.00445 0,0 0,13.00181 0,13.00181 0,0 -2.0003,29.00404 -2.0003,29.00404 -0.01,6.58091 0.8602,13.31185 -3.0004,19.00264 0,0 0,-16.00223 0,-16.00223 0,0 0.9601,-12.00167 0.9601,-12.00167 0,0 0,-13.0018 0,-13.0018 0,0 1.0402,-17.00237 1.0402,-17.00237 0,0 0,-46.0064 0,-46.0064 0,0 1.0001,-15.00208 1.0001,-15.00208 0,0 0,-12.00167 0,-12.00167 0,0 4.8307,-45.00626 4.8307,-45.00626 0,0 4.1706,-63.00876 4.1706,-63.00876 0,0 1.0001,-15.00209 1.0001,-15.00209 0,0 0,-7.00097 0,-7.00097 0,0 4.1006,-33.83471 4.1006,-33.83471 0,0 -2.1603,-20.1728 -2.1603,-20.1728 0,0 0,-10.0014 0,-10.0014 0,0 -6.6509,-24.00333 -6.6509,-24.00333 0,0 -1.5803,-17.00237 -1.5803,-17.00237 0,0 -3.1104,-15.00208 -3.1104,-15.00208 0,0 -3.3705,-19.00265 -3.3705,-19.00265 0,0 -3.2104,-11.00153 -3.2104,-11.00153 0,0 -3.1104,-21.00292 -3.1104,-21.00292 0,0 -3.9106,-21.00292 -3.9106,-21.00292 z m -36.005,17.53244 c 12.0617,-1.70024 27.9539,13.08182 26.5837,25.47354 -0.6901,6.32088 -5.2807,9.07126 -9.3013,13.17183 -2.8504,2.91041 -5.0307,6.21087 -9.2813,7.22101 -6.2908,1.50021 -17.4824,-4.58064 -20.0128,-10.39145 -2.0602,-4.74066 -2.0102,-10.92152 -1.9902,-16.00222 0.05,-10.37144 3.7605,-16.43229 14.0019,-19.47271 z m 16.0022,21.47299 c 5.4508,-5.14072 -5.9208,-13.31185 -13.0018,-12.40173 -4.3106,0.55008 -6.5009,4.75066 -7.9311,8.40117 -0.9801,2.50035 -2.1003,6.34088 -2.2803,9.00125 -0.8001,11.95166 11.6816,11.54161 19.2127,6.84095 2.0803,-1.29018 5.6708,-3.31046 6.1008,-5.93082 0.3301,-1.99028 -1.1901,-4.24059 -2.1003,-5.91082 z m 63.0088,-8.36117 c 8.1011,-1.55021 15.6522,3.36047 17.9025,11.36158 0.5401,1.95027 0.3901,4.00056 0.5401,6.00084 0.15,2.73038 0.6101,4.17058 0,7.00097 -1.5402,7.53105 -7.291,12.1817 -14.442,14.21198 -16.2523,4.62064 -16.1323,-10.0614 -16.0023,-21.21295 0.04,-3.23045 0.3001,-8.09113 1.9803,-10.90152 2.0803,-3.45048 6.4209,-5.14071 10.0214,-6.4609 z m 2.0003,4.79067 c -9.3813,3.25045 -8.1111,8.14113 -8.0011,16.5723 0.07,4.92069 0.4,10.7615 7.0209,9.46132 3.6206,-0.7201 8.1712,-3.16044 9.9614,-6.5009 0.9502,-1.78025 1.0302,-3.99056 1.3002,-5.96083 1.0902,-8.04112 -0.5201,-14.46201 -10.2814,-13.57189 z m -67.9895,37.31519 c 3.6105,-0.88012 10.5115,-1.59022 13.5519,1.00014 4.6207,3.93054 2.7804,15.07209 -2.6204,17.56244 -3.5304,1.63023 -11.3415,3.25045 -14.722,0.84012 -5.2607,-3.74052 -4.5006,-14.85207 3.7905,-19.4027 z m 2.0803,3.86054 c -10.8415,6.73093 0.7801,14.32199 6.6309,12.34171 3.5605,-1.21017 5.5108,-8.13113 1.8403,-11.34157 -2.3803,-2.08029 -5.6708,-1.61023 -8.4712,-1.00014 z m 86.9121,13.40186 c -1.0501,3.96055 -1.5302,5.0407 -5.0507,7.38103 -1.6302,1.08015 -4.0906,2.42033 -5.9508,2.97041 -13.2219,3.90054 -12.2917,-10.67148 -8.0211,-18.31255 1.6702,-2.97041 4.2105,-5.59077 7.9211,-4.26059 6.4009,2.30032 2.8304,9.61134 11.1015,12.2217 z m -5.0007,2.00028 c 0,0 -2.0203,-6.00084 -2.0203,-6.00084 -0.5,-1.17016 -1.1901,-2.77038 -1.9702,-3.77052 -8.0312,-10.30143 -16.2923,19.57272 -2.0103,13.22184 0,0 6.0008,-3.45048 6.0008,-3.45048 z m -66.4592,16.01222 c 10.7915,-3.35046 18.8026,17.16239 9.3413,23.21323 -4.7407,3.04043 -12.1617,-1.62022 -14.002,-6.26087 -2.1003,-5.29073 0.8701,-13.14183 4.6607,-16.95236 z m 0.45,3.99056 c 0.02,2.52035 -0.02,4.50063 0.5201,7.00097 0,0 1.1902,3.98056 1.1902,3.98056 0.7901,1.99027 2.9104,6.12085 5.7308,4.62064 2.1403,-1.13016 1.1601,-4.82067 0.6901,-6.60092 -1.5803,-6.11085 -1.5203,-8.45117 -8.1312,-9.00125 z m 59.0082,8.00111 c 0.5101,2.08029 0.9302,3.83053 0.9402,6.00084 0.05,10.1214 -9.6214,8.47117 -12.3718,6.18086 -4.7306,-3.95055 -2.3003,-18.06252 7.4311,-19.03265 6.6109,-0.66009 12.2217,5.49076 6.0008,9.85137 -0.8901,-10.7815 -9.9414,-6.18086 -11.2215,0 -0.9902,4.78066 3.2204,7.76108 6.4409,1.96027 0,0 2.7803,-4.96069 2.7803,-4.96069 z m -55.0076,19.00264 c 2.1203,0.56008 3.9105,0.90013 5.5708,2.51035 2.4603,2.39034 3.7105,9.91138 0.8601,12.35172 -4.2006,3.6005 -9.4113,2.22031 -9.1413,-3.86054 -0.22,-1.34018 -0.06,-2.70037 0,-4.00055 0,0 2.7104,-7.00098 2.7104,-7.00098 z m 44.1461,1.03015 c 9.3213,-3.02042 6.5709,5.8008 5.3008,10.97152 -0.4501,1.84026 -0.6101,4.78067 -2.1803,6.00084 -1.8203,1.4302 -5.7108,0.99014 -6.821,-3.06043 -1.2002,-4.44061 0.3601,-10.96152 3.7005,-13.91193 z m -39.3254,3.33046 c 0,0 -3.8206,-0.18002 -2.8204,-1.36019 -2.6004,2.60036 -3.3605,8.6412 -2.0003,10.00139 1.3602,1.36019 5.0007,0 5.0007,0 1.0001,-1.09015 -0.18,-8.6412 -0.18,-8.6412 z m 44.0061,-0.27004 c 0.06,-0.49006 -0.8201,-1.09015 -0.8201,-1.09015 -4.4707,3.05043 -4.9407,7.11099 -3.0005,12.00167 1.1602,1.24017 3.4405,-8.05112 3.8206,-10.91152 z m -42.3959,16.08224 c 6.0008,-0.63009 7.8411,7.37103 4.2606,9.64134 -4.8707,3.07043 -9.3513,-4.54063 -4.2606,-9.64134 z m 1.5702,0.83012 c -1.9203,3.37046 -1.7302,4.25059 -1.0001,8.00111 1.3601,1.18016 4.0005,-1.00014 4.0005,-1.00014 1.0902,-1.4502 -3.0004,-7.00097 -3.0004,-7.00097 z m 35.0049,8.00111 c 6.6009,0.54007 10.1114,4.37061 5.0007,10.00139 -0.3201,-3.88054 -0.2401,-4.20058 -3.0005,-7.00097 0,0 3.0005,14.00194 3.0005,14.00194 -5.3608,-3.48048 -5.9109,-11.21156 -5.0007,-17.00236 z m -27.3638,11.64162 c -1.0002,1.27017 -2.0003,1.16016 -3.5905,1.02014 -7.6311,-0.66009 -2.1903,-12.10168 2.5103,-4.51063 0.7701,1.24017 2.0803,2.21031 1.0802,3.49049 z m -3.6405,5.36074 c 1.0001,-1.18016 5.0007,-0.82011 5.0007,1.00014 0,1.82026 -1.7303,4.82067 -4.0006,4.00056 -2.2703,-0.82012 -2.0003,-3.82053 -1.0001,-5.0007 z" />
  <path
     d="m 1083.4907,208.41297 c -4.6681,-0.13009 -12.3949,2.41977 -15.9494,5.81958 -5.5606,5.31654 -11.0525,21.68247 -10.5033,30.01722 0.9458,14.3191 0.6178,8.98522 3.6613,21.68248 1.1289,4.72677 1.7543,8.699 6.7733,9.42753 2.5935,0.37294 5.8123,-0.33825 8.3904,-0.82393 11.4721,-2.1509 19.4888,-6.74759 24.0577,-19.87849 2.4332,-6.9991 2.0976,-12.68859 1.3272,-19.94788 0,0 -0.6178,-6.93839 -0.6178,-6.93839 -1.8764,-9.41887 -8.8634,-17.32863 -17.1394,-19.35812 z m 2.9673,12.15086 c 4.6222,3.12228 2.5628,8.10925 3.5315,13.27835 0,0 2.0442,8.67299 2.0442,8.67299 0.3279,4.57066 -2.6239,17.29394 -5.7512,20.20806 -2.1282,1.98612 -6.1861,2.55854 -8.8939,2.71465 -1.2052,0.13877 -1.8459,0.1301 -3.051,0 -7.1472,-1.13616 -2.8529,-5.3599 -5.82,-11.50038 -0.8619,-1.78664 -1.6018,-2.36773 -2.151,-4.562 -0.5263,-2.10753 -0.9763,-14.5446 -0.389,-16.40062 2.5553,-8.02252 13.4018,-13.32172 20.4804,-12.41105 z m -45.6823,6.83432 c -9.7175,-1.97744 -15.3697,4.90891 -20.3429,13.38242 -5.3547,9.13266 -8.8786,14.61399 -8.6345,26.01897 0.1449,6.71289 2.1968,13.79006 8.3828,15.94963 2.8527,0.94535 6.987,0.50303 9.916,0 13.7145,-2.22028 20.4421,-12.02944 22.5473,-27.22451 1.4189,-10.25148 -2.8221,-24.31907 -11.8687,-28.12651 z m -20.5946,48.07438 c -5.7056,-11.92536 1.7849,-19.95654 7.3225,-29.48816 1.6247,-2.79271 4.302,-10.08669 7.9405,-9.13267 1.1441,0.30356 2.8451,1.84736 3.8062,2.65394 1.2967,1.10147 2.99,2.41977 3.7986,4.03294 0.7704,1.55246 0.7474,3.32176 0.778,5.04768 0.1144,8.36076 -1.7773,9.40152 -4.9656,16.47869 -1.1137,2.47179 -1.8459,6.26189 -3.6537,7.90108 -3.0739,2.78404 -8.871,0.80659 -15.0265,2.5065 z m 38.9011,-2.60189 c -1.8612,0.65914 -2.5858,0.78924 -3.8138,2.73199 -1.7163,2.72331 -4.325,18.49949 -4.6453,22.41968 0,0 -5.7131,26.88627 -5.7131,26.88627 0,0 -3.3104,35.55925 -3.3104,35.55925 0,0 -6.1174,25.15167 -6.1174,25.15167 0,0 0,7.80569 0,7.80569 0,0 -2.151,15.75883 -2.151,15.75883 0,0 1.3424,23.26963 1.3424,23.26963 0,0 0,8.67299 0,8.67299 0,0 0.7629,17.34598 0.7629,17.34598 0,0 0.7627,14.74408 0.7627,14.74408 0,0 3.2647,47.70145 3.2647,47.70145 0,0 6.0181,64.18012 6.0181,64.18012 0,0 2.1587,27.75357 2.1587,27.75357 0,0 0,11.27489 0,11.27489 0,0 1.5256,25.15167 1.5256,25.15167 0.01,5.70682 -0.6561,11.54375 2.2883,16.47868 0,0 0,-13.87679 0,-13.87679 0,0 -0.7323,-10.40759 -0.7323,-10.40759 0,0 0,-11.27488 0,-11.27488 0,0 -0.7933,-14.74408 -0.7933,-14.74408 0,0 0,-39.89576 0,-39.89576 0,0 -0.7627,-13.00948 -0.7627,-13.00948 0,0 0,-10.40759 0,-10.40759 0,0 -3.6843,-39.02845 -3.6843,-39.02845 0,0 -3.1807,-54.63984 -3.1807,-54.63984 0,0 -0.7627,-13.00948 -0.7627,-13.00948 0,0 0,-6.07109 0,-6.07109 0,0 -3.1274,-29.34073 -3.1274,-29.34073 0,0 1.6476,-17.49342 1.6476,-17.49342 0,0 0,-8.673 0,-8.673 0,0 5.0723,-20.81517 5.0723,-20.81517 0,0 1.2053,-14.74408 1.2053,-14.74408 0,0 2.3722,-13.00948 2.3722,-13.00948 0,0 2.5705,-16.47869 2.5705,-16.47869 0,0 2.4485,-9.54029 2.4485,-9.54029 0,0 2.3722,-18.21328 2.3722,-18.21328 0,0 2.9824,-18.21327 2.9824,-18.21327 z m 27.4596,15.20375 c -9.199,-1.47441 -21.3193,11.34427 -20.2743,22.0901 0.5263,5.48133 4.0274,7.8664 7.0937,11.42233 2.1739,2.52384 3.8367,5.38593 7.0785,6.2619 4.7978,1.30095 13.3331,-3.97223 15.263,-9.01124 1.5712,-4.111 1.533,-9.47091 1.5178,-13.87678 -0.038,-8.99389 -2.868,-14.24973 -10.6787,-16.88631 z m -12.2042,18.62091 c -4.1571,-4.45792 4.5155,-11.54375 9.9159,-10.75451 3.2875,0.47702 4.958,4.11967 6.0488,7.28531 0.7475,2.16825 1.6018,5.49868 1.7391,7.80569 0.6101,10.36422 -8.9091,10.00864 -14.6528,5.93232 -1.5866,-1.11881 -4.3249,-2.87075 -4.6528,-5.14307 -0.2518,-1.72593 0.9076,-3.67735 1.6018,-5.12574 z m -48.0544,-7.25063 c -6.1783,-1.3443 -11.9372,2.91413 -13.6535,9.85252 -0.4119,1.69123 -0.2975,3.4692 -0.4119,5.2038 -0.1144,2.36773 -0.4653,3.61664 0,6.07109 1.1746,6.53076 5.5606,10.56371 11.0143,12.32432 12.3951,4.00692 12.3035,-8.72503 12.2044,-18.39541 -0.03,-2.80138 -0.2289,-7.01645 -1.5103,-9.45356 -1.5866,-2.99218 -4.897,-4.45791 -7.643,-5.60276 z m -1.5255,4.15437 c 7.1548,2.81872 6.186,7.05981 6.1021,14.37114 -0.053,4.26712 -0.305,9.33214 -5.3545,8.20465 -2.7614,-0.62445 -6.2319,-2.74066 -7.5973,-5.63744 -0.7246,-1.54379 -0.7856,-3.46052 -0.9916,-5.1691 -0.8314,-6.97309 0.3967,-12.54114 7.8413,-11.76925 z m 51.8529,32.35893 c -2.7536,-0.76322 -8.0167,-1.37901 -10.3355,0.8673 -3.5241,3.40848 -2.1205,13.07019 1.9984,15.22976 2.6925,1.4137 8.6498,2.81872 11.2279,0.72854 4.0122,-3.2437 3.4325,-12.8794 -2.8908,-16.8256 z m -1.5866,3.34777 c 8.2684,5.83692 -0.5949,12.41972 -5.0571,10.70247 -2.7154,-1.04944 -4.2029,-7.05114 -1.4036,-9.83517 1.8154,-1.80398 4.325,-1.39635 6.4607,-0.8673 z m -66.2844,11.62181 c 0.8008,3.4345 1.167,4.37118 3.852,6.40067 1.2432,0.93668 3.1197,2.09885 4.5384,2.57587 10.0838,3.38246 9.3744,-9.25408 6.1174,-15.88025 -1.2738,-2.57587 -3.2112,-4.84819 -6.0411,-3.69469 -4.8818,1.99479 -2.1586,8.33475 -8.4667,10.5984 z m 3.8138,1.7346 c 0,0 1.5408,-5.2038 1.5408,-5.2038 0.3813,-1.01474 0.9076,-2.40242 1.5026,-3.26972 6.1251,-8.93317 12.4255,16.97304 1.5332,11.4657 0,0 -4.5766,-2.99218 -4.5766,-2.99218 z m 50.6858,13.88545 c -8.2302,-2.90545 -14.3399,14.88285 -7.1242,20.13001 3.6155,2.63659 9.2753,-1.40502 10.6788,-5.42929 1.6018,-4.58801 -0.6636,-11.39631 -3.5546,-14.70072 z m -0.3431,3.46052 c -0.015,2.1856 0.015,3.90285 -0.3967,6.07109 0,0 -0.9078,3.45186 -0.9078,3.45186 -0.6025,1.72592 -2.2196,5.30787 -4.3706,4.00692 -1.6323,-0.98005 -0.8847,-4.18038 -0.5263,-5.72418 1.2053,-5.29919 1.1594,-7.32867 6.2014,-7.80569 z m -45.0032,6.93839 c -0.3891,1.80399 -0.7095,3.32176 -0.7171,5.2038 -0.038,8.77706 7.3379,7.34602 9.4355,5.35991 3.6078,-3.42583 1.7543,-15.66343 -5.6675,-16.5047 -5.0418,-0.57242 -9.321,4.76147 -4.5765,8.54289 0.6788,-9.34948 7.5819,-5.35991 8.5582,0 0.7552,4.14569 -2.4561,6.73024 -4.9123,1.69991 0,0 -2.1203,-4.30181 -2.1203,-4.30181 z m 41.952,16.47868 c -1.617,0.48569 -2.9823,0.78058 -4.2486,2.17692 -1.8763,2.07285 -2.8298,8.59494 -0.6559,10.71115 3.2036,3.12227 7.1776,1.9254 6.9717,-3.34778 0.1678,-1.16217 0.045,-2.3417 0,-3.46919 0,0 -2.0672,-6.0711 -2.0672,-6.0711 z m -33.6685,0.89333 c -7.109,-2.61925 -5.0113,5.03032 -4.0426,9.51426 0.3432,1.59583 0.4653,4.14569 1.6628,5.2038 1.3882,1.24024 4.3554,0.85863 5.2021,-2.65394 0.9153,-3.8508 -0.2747,-9.50559 -2.8223,-12.06412 z m 29.992,2.8881 c 0,0 2.9138,-0.15611 2.151,-1.17953 1.9832,2.25498 2.5629,7.49346 1.5255,8.67299 -1.0373,1.17953 -3.8138,0 -3.8138,0 -0.7627,-0.94535 0.1373,-7.49346 0.1373,-7.49346 z m -33.5617,-0.23417 c -0.046,-0.42497 0.6254,-0.94536 0.6254,-0.94536 3.4096,2.64527 3.7681,6.1665 2.2884,10.40759 -0.8848,1.07545 -2.6239,-6.98176 -2.9138,-9.46223 z m 32.3337,13.94617 c -4.5766,-0.5464 -5.9802,6.39199 -3.2494,8.36076 3.7147,2.66261 7.1318,-3.93754 3.2494,-8.36076 z m -1.1976,0.71986 c 1.4646,2.92279 1.3196,3.68602 0.7627,6.93839 -1.0372,1.02341 -3.0509,-0.8673 -3.0509,-0.8673 -0.8315,-1.25758 2.2882,-6.07109 2.2882,-6.07109 z m -26.6969,6.93839 c -5.0342,0.46834 -7.7115,3.7901 -3.8138,8.67299 0.2442,-3.36512 0.1832,-3.64265 2.2884,-6.07109 0,0 -2.2884,12.14218 -2.2884,12.14218 4.0885,-3.0182 4.508,-9.72243 3.8138,-14.74408 z m 20.8693,10.09536 c 0.7628,1.10146 1.5256,1.00606 2.7384,0.88464 5.8199,-0.57241 1.6705,-10.49431 -1.9145,-3.91152 -0.5874,1.07545 -1.5866,1.91673 -0.8239,3.02688 z m 2.7766,4.64872 c -0.7628,-1.02341 -3.8139,-0.71118 -3.8139,0.8673 0,1.57849 1.3196,4.18038 3.0511,3.4692 1.7315,-0.71119 1.5256,-3.31309 0.7628,-4.3365 z"
     stroke-width="0.813356"
     stroke="#000000"
     fill="none"
     id="path76" />
</svg>
