<?xml version="1.0" encoding="UTF-8" standalone="no"?>
<!DOCTYPE svg PUBLIC "-//W3C//DTD SVG 20010904//EN"
              "http://www.w3.org/TR/2001/REC-SVG-20010904/DTD/svg10.dtd">

<svg xmlns="http://www.w3.org/2000/svg"
     width="36.7822mm" height="141.572mm"
     viewBox="0 0 139 535">
  <path id="Selection"
        fill="none" stroke="black" stroke-width="1"
        d="M 31.00,3.68
           C 37.12,3.53 47.25,6.47 51.91,10.39
             59.20,16.52 66.40,35.39 65.68,45.00
             64.44,61.51 64.87,55.36 60.88,70.00
             59.40,75.45 58.58,80.03 52.00,80.87
             48.60,81.30 44.38,80.48 41.00,79.92
             25.96,77.44 15.45,72.14 9.46,57.00
             6.27,48.93 6.71,42.37 7.72,34.00
             7.72,34.00 8.53,26.00 8.53,26.00
             10.99,15.14 20.15,6.02 31.00,3.68 Z
           M 27.11,17.69
           C 21.05,21.29 23.75,27.04 22.48,33.00
             22.48,33.00 19.80,43.00 19.80,43.00
             19.37,48.27 23.24,62.94 27.34,66.30
             30.13,68.59 35.45,69.25 39.00,69.43
             40.58,69.59 41.42,69.58 43.00,69.43
             52.37,68.12 46.74,63.25 50.63,56.17
             51.76,54.11 52.73,53.44 53.45,50.91
             54.14,48.48 54.73,34.14 53.96,32.00
             50.61,22.75 36.39,16.64 27.11,17.69 Z
           M 87.00,25.57
           C 99.74,23.29 107.15,31.23 113.67,41.00
             120.69,51.53 125.31,57.85 124.99,71.00
             124.80,78.74 122.11,86.90 114.00,89.39
             110.26,90.48 104.84,89.97 101.00,89.39
             83.02,86.83 74.20,75.52 71.44,58.00
             69.58,46.18 75.14,29.96 87.00,25.57 Z
           M 114.00,81.00
           C 121.48,67.25 111.66,57.99 104.40,47.00
             102.27,43.78 98.76,35.37 93.99,36.47
             92.49,36.82 90.26,38.60 89.00,39.53
             87.30,40.80 85.08,42.32 84.02,44.18
             83.01,45.97 83.04,48.01 83.00,50.00
             82.85,59.64 85.33,60.84 89.51,69.00
             90.97,71.85 91.93,76.22 94.30,78.11
             98.33,81.32 105.93,79.04 114.00,81.00 Z
           M 63.00,78.00
           C 65.44,78.76 66.39,78.91 68.00,81.15
             70.25,84.29 73.67,102.48 74.09,107.00
             74.09,107.00 81.58,138.00 81.58,138.00
             81.58,138.00 85.92,179.00 85.92,179.00
             85.92,179.00 93.94,208.00 93.94,208.00
             93.94,208.00 93.94,217.00 93.94,217.00
             93.94,217.00 96.76,235.17 96.76,235.17
             96.76,235.17 95.00,262.00 95.00,262.00
             95.00,262.00 95.00,272.00 95.00,272.00
             95.00,272.00 94.00,292.00 94.00,292.00
             94.00,292.00 93.00,309.00 93.00,309.00
             93.00,309.00 88.72,364.00 88.72,364.00
             88.72,364.00 80.83,438.00 80.83,438.00
             80.83,438.00 78.00,470.00 78.00,470.00
             78.00,470.00 78.00,483.00 78.00,483.00
             78.00,483.00 76.00,512.00 76.00,512.00
             75.99,518.58 76.86,525.31 73.00,531.00
             73.00,531.00 73.00,515.00 73.00,515.00
             73.00,515.00 73.96,503.00 73.96,503.00
             73.96,503.00 73.96,490.00 73.96,490.00
             73.96,490.00 75.00,473.00 75.00,473.00
             75.00,473.00 75.00,427.00 75.00,427.00
             75.00,427.00 76.00,412.00 76.00,412.00
             76.00,412.00 76.00,400.00 76.00,400.00
             76.00,400.00 80.83,355.00 80.83,355.00
             80.83,355.00 85.00,292.00 85.00,292.00
             85.00,292.00 86.00,277.00 86.00,277.00
             86.00,277.00 86.00,270.00 86.00,270.00
             86.00,270.00 90.10,236.17 90.10,236.17
             90.10,236.17 87.94,216.00 87.94,216.00
             87.94,216.00 87.94,206.00 87.94,206.00
             87.94,206.00 81.29,182.00 81.29,182.00
             81.29,182.00 79.71,165.00 79.71,165.00
             79.71,165.00 76.60,150.00 76.60,150.00
             76.60,150.00 73.23,131.00 73.23,131.00
             73.23,131.00 70.02,120.00 70.02,120.00
             70.02,120.00 66.91,99.00 66.91,99.00
             66.91,99.00 63.00,78.00 63.00,78.00 Z
           M 27.00,95.53
           C 39.06,93.83 54.95,108.61 53.58,121.00
             52.89,127.32 48.30,130.07 44.28,134.17
             41.43,137.08 39.25,140.38 35.00,141.39
             28.71,142.89 17.52,136.81 14.99,131.00
             12.93,126.26 12.98,120.08 13.00,115.00
             13.05,104.63 16.76,98.57 27.00,95.53 Z
           M 43.00,117.00
           C 48.45,111.86 37.08,103.69 30.00,104.60
             25.69,105.15 23.50,109.35 22.07,113.00
             21.09,115.50 19.97,119.34 19.79,122.00
             18.99,133.95 31.47,133.54 39.00,128.84
             41.08,127.55 44.67,125.53 45.10,122.91
             45.43,120.92 43.91,118.67 43.00,117.00 Z
           M 106.00,108.64
           C 114.10,107.09 121.65,112.00 123.90,120.00
             124.44,121.95 124.29,124.00 124.44,126.00
             124.59,128.73 125.05,130.17 124.44,133.00
             122.90,140.53 117.15,145.18 110.00,147.21
             93.75,151.83 93.87,137.15 94.00,126.00
             94.04,122.77 94.30,117.91 95.98,115.10
             98.06,111.65 102.40,109.96 106.00,108.64 Z
           M 108.00,113.43
           C 98.62,116.68 99.89,121.57 100.00,130.00
             100.07,134.92 100.40,140.76 107.02,139.46
             110.64,138.74 115.19,136.30 116.98,132.96
             117.93,131.18 118.01,128.97 118.28,127.00
             119.37,118.96 117.76,112.54 108.00,113.43 Z
           M 40.02,150.74
           C 43.63,149.86 50.53,149.15 53.57,151.74
             58.19,155.67 56.35,166.81 50.95,169.30
             47.42,170.93 39.61,172.55 36.23,170.14
             30.97,166.40 31.73,155.29 40.02,150.74 Z
           M 42.10,154.60
           C 31.26,161.33 42.88,168.92 48.73,166.94
             52.29,165.73 54.24,158.81 50.57,155.60
             48.19,153.52 44.90,153.99 42.10,154.60 Z
           M 129.00,168.00
           C 127.95,171.96 127.47,173.04 123.95,175.38
             122.32,176.46 119.86,177.80 118.00,178.35
             104.78,182.25 105.71,167.68 109.98,160.04
             111.65,157.07 114.19,154.45 117.90,155.78
             124.30,158.08 120.73,165.39 129.00,168.00 Z
           M 124.00,170.00
           C 124.00,170.00 121.98,164.00 121.98,164.00
             121.48,162.83 120.79,161.23 120.01,160.23
             111.98,149.93 103.72,179.80 118.00,173.45
             118.00,173.45 124.00,170.00 124.00,170.00 Z
           M 57.55,186.01
           C 68.34,182.66 76.35,203.17 66.89,209.22
             62.15,212.26 54.73,207.60 52.89,202.96
             50.79,197.67 53.76,189.82 57.55,186.01 Z
           M 58.00,190.00
           C 58.02,192.52 57.98,194.50 58.52,197.00
             58.52,197.00 59.71,200.98 59.71,200.98
             60.50,202.97 62.62,207.10 65.44,205.60
             67.58,204.47 66.60,200.78 66.13,199.00
             64.55,192.89 64.61,190.55 58.00,190.00 Z
           M 117.00,198.00
           C 117.51,200.08 117.93,201.83 117.94,204.00
             117.99,214.12 108.32,212.47 105.57,210.18
             100.84,206.23 103.27,192.12 113.00,191.15
             119.61,190.49 125.22,196.64 119.00,201.00
             118.11,190.22 109.06,194.82 107.78,201.00
             106.79,205.78 111.00,208.76 114.22,202.96
             114.22,202.96 117.00,198.00 117.00,198.00 Z
           M 62.00,217.00
           C 64.12,217.56 65.91,217.90 67.57,219.51
             70.03,221.90 71.28,229.42 68.43,231.86
             64.23,235.46 59.02,234.08 59.29,228.00
             59.07,226.66 59.23,225.30 59.29,224.00
             59.29,224.00 62.00,217.00 62.00,217.00 Z
           M 106.14,218.03
           C 115.46,215.01 112.71,223.83 111.44,229.00
             110.99,230.84 110.83,233.78 109.26,235.00
             107.44,236.43 103.55,235.99 102.44,231.94
             101.24,227.50 102.80,220.98 106.14,218.03 Z
           M 66.82,221.36
           C 66.82,221.36 63.00,221.18 64.00,220.00
             61.40,222.60 60.64,228.64 62.00,230.00
             63.36,231.36 67.00,230.00 67.00,230.00
             68.00,228.91 66.82,221.36 66.82,221.36 Z
           M 110.82,221.09
           C 110.88,220.60 110.00,220.00 110.00,220.00
             105.53,223.05 105.06,227.11 107.00,232.00
             108.16,233.24 110.44,223.95 110.82,221.09 Z
           M 68.43,237.17
           C 74.43,236.54 76.27,244.54 72.69,246.81
             67.82,249.88 63.34,242.27 68.43,237.17 Z
           M 70.00,238.00
           C 68.08,241.37 68.27,242.25 69.00,246.00
             70.36,247.18 73.00,245.00 73.00,245.00
             74.09,243.55 70.00,238.00 70.00,238.00 Z
           M 105.00,246.00
           C 111.60,246.54 115.11,250.37 110.00,256.00
             109.68,252.12 109.76,251.80 107.00,249.00
             107.00,249.00 110.00,263.00 110.00,263.00
             104.64,259.52 104.09,251.79 105.00,246.00 Z
           M 77.64,257.64
           C 76.64,258.91 75.64,258.80 74.05,258.66
             66.42,258.00 71.86,246.56 76.56,254.15
             77.33,255.39 78.64,256.36 77.64,257.64 Z
           M 74.00,263.00
           C 75.00,261.82 79.00,262.18 79.00,264.00
             79.00,265.82 77.27,268.82 75.00,268.00
             72.73,267.18 73.00,264.18 74.00,263.00 Z" />
</svg>
