<?xml version="1.0" encoding="UTF-8" standalone="no"?>
<!DOCTYPE svg PUBLIC "-//W3C//DTD SVG 20010904//EN"
              "http://www.w3.org/TR/2001/REC-SVG-20010904/DTD/svg10.dtd">

<svg xmlns="http://www.w3.org/2000/svg"
     width="1.11111in" height="4.16667in"
     viewBox="0 0 100 375">
  <path id="stem"
        fill="none" stroke="black" stroke-width="1"
        d="M 37.07,5.77
           C 37.01,4.58 39.19,3.58 39.32,5.39
             39.32,5.39 39.07,26.77 39.07,26.77
             39.07,26.77 37.07,61.78 37.07,61.78
             37.07,61.78 37.07,79.78 37.07,79.78
             37.07,79.78 36.07,98.78 36.07,98.78
             39.63,91.21 53.18,77.05 60.07,71.93
             63.97,69.04 67.11,65.78 72.07,65.78
             67.26,72.18 63.65,73.05 58.07,77.96
             53.00,82.42 38.96,98.17 35.87,103.78
             33.44,108.21 34.17,116.57 32.85,122.79
             32.85,122.79 25.20,154.79 25.20,154.79
             25.20,154.79 25.20,173.79 25.20,173.79
             25.20,173.79 21.06,206.80 21.06,206.80
             22.87,198.33 28.33,191.97 32.83,184.79
             35.39,180.72 37.89,175.27 41.25,172.00
             41.25,172.00 49.07,166.40 49.07,166.40
             49.07,166.40 68.77,148.79 68.77,148.79
             72.19,144.82 76.04,138.43 78.63,133.79
             80.82,129.86 80.69,127.35 85.07,125.79
             83.71,131.60 82.40,133.70 79.49,138.79
             71.17,153.33 66.72,156.15 54.07,166.59
             49.46,170.40 46.68,170.77 42.40,175.81
             37.58,181.46 26.22,201.45 22.89,208.80
             21.52,211.81 17.90,218.27 17.36,220.80
             17.36,220.80 15.60,243.80 15.60,243.80
             15.60,243.80 13.34,252.80 13.34,252.80
             12.27,257.97 11.30,270.81 12.06,275.81
             14.07,267.79 27.06,248.74 33.07,242.84
             38.26,237.76 42.53,235.65 47.18,229.79
             52.52,223.05 57.98,213.41 62.21,205.80
             64.23,202.16 65.45,198.02 68.07,194.79
             69.27,203.20 59.43,217.70 54.71,224.80
             45.39,238.84 42.23,237.75 33.23,247.80
             29.26,252.24 16.70,271.52 14.70,276.81
             13.13,280.97 11.07,291.27 11.06,295.81
             11.06,295.81 11.06,313.81 11.06,313.81
             11.06,313.81 10.06,329.81 10.06,329.81
             10.06,329.81 11.44,365.82 11.44,365.82
             11.62,368.28 10.21,374.18 7.07,370.21
             6.00,368.86 5.13,358.07 5.07,355.82
             5.07,355.82 4.06,335.81 4.06,335.81
             4.06,335.81 5.06,320.81 5.06,320.81
             5.06,320.81 5.06,284.81 5.06,284.81
             5.06,284.81 6.06,269.81 6.06,269.81
             6.31,248.20 10.90,244.79 11.06,231.80
             11.06,231.80 11.06,223.80 11.06,223.80
             11.16,215.57 17.46,196.73 19.64,186.79
             21.82,176.82 22.04,171.83 22.06,161.79
             22.09,141.42 31.73,129.74 32.06,100.78
             32.06,100.78 34.07,78.78 34.07,78.78
             34.07,78.78 34.07,63.78 34.07,63.78
             34.07,63.78 36.07,33.77 36.07,33.77
             36.07,33.77 37.07,5.77 37.07,5.77 Z" />
</svg>
