<?xml version="1.0" encoding="utf-8"?>
<!-- Generator: Adobe Illustrator 24.1.2, SVG Export Plug-In . SVG Version: 6.00 Build 0)  -->
<svg version="1.1" id="Layer_1" xmlns="http://www.w3.org/2000/svg" xmlns:xlink="http://www.w3.org/1999/xlink" x="0px" y="0px"
	 viewBox="0 0 1366 768" enable-background="new 0 0 1366 768" xml:space="preserve">
<g id="sun_1_">
	<path id="halo" d="M426.7,253.4c7-0.4,4.2-6.1,10.9-8.1c6.7-2,9.9,0.8,15.4-0.8c11.1-3.3,17-9.9,26.5-16c6.2-4,17.4-5.8,24.8-10.8
		c5.1-3.4,7.2-9.7,9.5-13.5c4.5-7.5,3.4-15.6,4.3-23.5c0.6-5.2,4.3-10.1,3.3-15.3c-0.9-4.4-3.5-8-5.3-12.5c-1.2-3-0.7-8-2.3-11
		c-1.9-3.7-6.3-6-8.5-10c-2-3.6-1.9-10.7-4.8-13.2c-6.2-5.6-14.6-5.9-22.5-9.5c-6.9-3.2-15.3-7.3-23.5-6.8s-7.8,3.3-13.5,5
		c-7.5,2.2-15.9,5.4-22.8,9.5c-6.3,3.7-13,4.4-18.3,10c-3.3,3.5-4.2,10-7,14c-3.9,5.6-8.7,9.3-11.5,15.8c-2.6,6,3.7,12.5,2.3,18.5
		c-3.7,14.8-15,14.1-13,26.5c0.9,5.7,7.3,11.9,12,19.8c6.5,10.8,9.6,25.3,18.3,29.5C409.7,255.2,419.7,253.8,426.7,253.4z"/>
	<path id="sun" d="M431.2,201.2c-14.1-0.4-28.2-14.6-14.3-42.5c14.8-29.5,33.3-30.3,43.3-23c8.9,6.6,10.4,18.9,5.3,35
		C459.9,187.8,445.5,201.5,431.2,201.2z"/>
</g>
<path id="ground" fill="none" stroke="#000000" d="M247.5,769.2c4-12.5,26.2-15.1,42-25c9.8-6.2,18.4-8.1,27-16
	c7.3-6.7,14.4-19.3,23.3-24c3.4-1.8,12.6-2.2,16.3-4c6.5-3.1,9.7-11.9,17-14.8c7-2.7,25.9-0.6,33.5-3c7.4-2.4,9.5-7.9,17.5-10
	c6.4-1.7,16.9,4.4,25.8,3.5c11.4-8.4,18.3-5.1,31-6c5.2-0.3,11.7-5.9,18-7.3c7.7-1.7,15.1,0.7,20.3,0c2.5-0.4,10.5,4.1,13,3.8
	c3.2-0.4,13-7.6,16.3-8c3.8-0.5,5.6,13,9.5,12.5c3.3-0.4,0.4-9.7,3.8-10c7.5-6.5,13.4-4.7,16.5-5c5.4-0.5,7.7,14,13.3,13.5
	c10.8-0.9,15.9-7.4,27-8c7.4-0.4,23.5,5.8,31,5.5c1.3-0.1,26.7-3.4,28-3.5c1.7-0.1,14.5-4.4,16.3-4.5c2.6-0.1,16.9,7.3,19.5,7.3
	c3.8-0.1,0.7-10.9,4.5-11c2.9-0.1,5.6-2.2,8.5-2.3c5.4-0.1,5.6-3.7,11-3.8c11,0,16.9,11.5,27.8,11.8c10.3,0.2,10.9-10.6,21.5-11.8
	c12.4-1.4,34.8,6.8,46.5,7.8c4.9,0.4,5.7,8.6,10.5,9c8.6,0.8,2.8-4.7,11.3-3.8c16.1,1.8,25,9.8,40.5,12.3
	c13.7,2.2,26.7,11.2,39.8,14c8.1,1.7,22.6-2.9,30.5-1c12,2.9,2.8,12.6,14,16c19.2,5.9,37.8-27.4,55.8-20.5
	c10.5,4.1,19.5,13.8,29.3,20c9.1,5.8,41-3.7,49.3,3.3c15.9,13.2,48.3,29.7,55,48c4.7,12.6,11.2,33.8,8,46c-3.1,11.7-16,14.6-14,23
	c7.2,30.6-13.1,43-28,60c-6,6.9-4.3,28.7-13,34c-11.9,7.2-56.9,37.5-74,41c-20.4,4.2-37.9-12.1-61-15c-22-2.8-37.5,15.3-64,12
	c-23.7-3-63,1.4-93-8c-25-7.8-40.1-29.3-66-33c-13.8-2-27.8,15.6-53,20c-17.9,3.1-48.3-6.2-58-8c-45.1-8.4-77.8,13.4-128,9
	c-27-2.3-78.4-26.2-96-35c-19.7-9.8-84.8,0.9-99-11c-21.2-17.7-50.5-29.4-56-52C267.9,814.6,241.2,788.6,247.5,769.2z"/>
<g id="borders">
	<g>
		<defs>
			<path id="SVGID_1_" d="M1041.2,271.2c0.7,7.5-0.3,17-2,34c8,20.3,29.8,38.4,62.3,65l16,412.5l-270-4.5l-16-85
				c0,0,36.8,2.8,30.8-9.3s-60.8-22.8-80.8-4.8c0,0-13,5.2-25,6c-25-7-62,0-62,0s-66,13-73,11s-2,2-39-8s-52,8-67-11s-15-12-29-30
				s-30-30-44-37s-13,1-15-21s-14-37-16-54s-9-32-5-51s7-30,5-49s-10-20,8-48c11.8-18.4-7.3-25.9-11.5-37.5
				c-2.2-6,11.5-13.9,10.5-23.5c-3-28-3-19.5,35-37.5s53-16.5,72-26.5s48-2,47-26s19-35,15-52s-3-20,4-31s8-18-5-24
				c-13-6-12-19-23-32s-20-10-21-24s-13-15-13-28s3-20,13-20s49,7,57,5s59-1,71-5s71-11,88-5s47,19,61,17s47-4,61-6s63-6,77-1
				s29,14,39,31s17,25,20,41s4,26,7,48s-2,54,5,65s9.5,20.8,5.5,32.8C1032.4,252.6,1039.8,256.6,1041.2,271.2z"/>
		</defs>
		<clipPath id="SVGID_2_">
			<use xlink:href="#SVGID_1_"  overflow="visible"/>
		</clipPath>
		<path id="borderOut" clip-path="url(#SVGID_2_)" d="M856.5,678.8c11,3.7,33.5,11,12.3,19.3c-21.2,8.3-14.8,48.2,15.3,46.5
			c30.2-1.7,26-12,32.2-18.5c6.2-6.5,12-3.2,20.5,5.2c11.2,11,35.7,10.5,43,1.5c7.3-9-7.2-14.8,19-22.3c26.2-7.5,17.7-19.5,15-24.7
			c-2.7-5.2-22.8-21.5,5-33c27.8-11.5,17.7-33.8,13-38.2c-1.4-1.3-11.4-4.7-13.8-11c-5.7-14.6-3.1-39.1,10.8-47.3
			c6.4-3.8,14.3-7.5,15-13.7c0.7-6.2-3.8-6.8-3.3-8.3c0.8-2.5,6.3-0.8,6.5-5.7c0.2-4.8-5.2-5.3-5.2-7.3c0-2.3,5-0.1,5-5.3
			c0-5.2-2.7-7-4.2-9.5c-6.2-10.3-11-23.3-0.5-37.7c10.5-14.3-9.2-33.2-3.5-46.5c5.7-13.3,11.5-17.5,2.5-35.7s-9-26.5-3.5-32.8
			c5.5-6.3-4.2-37.3,2.2-55c3.2-8.8,24.7-187.7-58.3-273.7s-439-78-470,0s96,69,50,171s-152.3,67.9-158,133
			c-15,171.4-16.5,274.2,58,329.5C585.5,750.7,845.5,675.2,856.5,678.8z"/>
	</g>
	<g>
		<defs>
			<path id="SVGID_3_" d="M985.5,28.2c0.5,0,157.5,1.5,157.5,1.5l-14.5,379.5c0,0-63.3,158.8-106.8,140.5
				c-5.8-2.4-10.6,22.3-22.9,28.5c-6.7,3.4,6.3,13.4,1.7,17.3c-8.8,7.2-2.7,19-7.3,20c-9.3,2.2-4.1,5.8-7.8,11
				c-6.4,8.9-18.5,19.3-26.8,26.3c-9.8,8.3-54.9-7.8-61.9-1.8s-18.9-6.7-46-6.7c-36.5,0-51,15-62.7,6.3c-3.7-2.8-28.6,2.4-50,4.7
				c-17,1.8-31.6-0.5-32.7,5c-2.3,12.3-34.9,7.4-27,3c8.1-4.5-12.7-11.3-32.7,3.3c-8.5,6.2-22.7,1-35.7-8.3
				c-6.2-4.4-19.1,0.5-30.7-0.7c-12.8-1.3-23.9-8.4-23-10.3c3.2-7.2-0.6-7-6-14.7c-4.1-5.7-16.5-8.6-23-15c-5.7-5.7-14.1,1.1-20.3-2
				c-6.4-3.2,1.1-9.4-3.3-16c-4.9-7.2-17.1-13.3-21.7-25.3c-4.1-10.8-0.8-27.6,0.3-33c1.2-6.1-17.6-14.2-17-20
				c1.2-11.4,7.8-16.1,8.7-26.7c0.6-7.5-5.7-12.5-5.3-20c0.3-6.8-2.8-7-2-14c1.1-10.2,4.7,0.5,7.3-11c0.9-3.8-7-8.2-6-13
				c0.9-4.4,4.3-4,5.7-9c0.8-2.8-5.5-13.3-4.7-16.3c2.1-7.6,9-8.1,10-15.7c0.9-6.9,5.1-8.9,4.7-16.7c-0.5-9.1-5.5-23.7-3.3-28.7
				c2.6-6,5.5-14.1,13-17.7c3.7-1.8,7.8,1.9,12.3,0.7c3.5-1,6-8.7,9.7-9.7c4.6-1.2,22.6-2.2,27.3-3c20.1-3.5,26.6-5.1,31.7-15.3
				c6.5-13.1,24.6-18.5,32.7-28c18.7-22,30-35.1,41-46.3c7.2-7.4,17.6-15.4,18.3-19.7c1.1-6.3-8.6-8.3-8.7-14.7
				c-0.1-4.8,1.3-12.5,1-17.3c-0.4-6.3-10.5-14.8-11.3-20.7c-3.7-27-0.3-37-13.3-40.3c0,0-13.9-19.1-29.3-43
				c-17.4-26.9-0.7-59.9,38.7-51.5c20.4,4.4,12.4-4.8,35.3-3c25.2,2,44.3,12,70.8,8.5c6.8,1.3,19.3-2.3,26-1c5.7,1.1,23.5,6.9,29,8
				c11.9,2.3,31.2,13,42,15c6.2,1.1,21.3-3.1,27-2c5.6,1,21.2,5.3,26.3,6.3c31.9,5.8,30.5-0.3,53,7.5S985,28.2,985.5,28.2z"/>
		</defs>
		<clipPath id="SVGID_4_">
			<use xlink:href="#SVGID_3_"  overflow="visible"/>
		</clipPath>
		<path id="borderMid" clip-path="url(#SVGID_4_)" d="M1009.5,566.5c-8,9.6-14,4.3-7.3-9.8c6.7-14.2-1.2-28.7,2.3-41.8
			c3.1-11.6,10.3-13.1,12.2-15.6c6.2-8.2-0.2-20.5-6.8-15.8c-2.1,1.5-2.5-4.4-2-13.1c0.3-5.1,5.5-11.3,2.7-20.4
			c-2.8-9.2-14.2-42,3.3-29.5c17.5,12.5,21.5-56.5,4-28c-10.5,17.1-14.2-9.5-8.3-27s0.6-26.8-3.2-30.3c-9.3-8.8,17,1.3,7.7-10
			s2.5-28-3.2-41.3c-2.7-5-1.5-16.3,0.3-22.3c1.8-6-6.8-14.2-3.7-25c3.2-10.8-8.3-10.8-3-22.7c5.3-11.8-9.2-25.5-3.2-34.8
			c6-9.3,5-16.5,1.5-19.5s-1.2-19-5-26.3c-3.8-7.3-11.5-0.5-11.5-0.5c15.8-13.2,6.2-22.7,2.3-24.5c-3.8-1.8-0.7-10.7-15.2-17.7
			s-1.5-18.8-13.8-22.7l-38.2-16.7c0,0-296.9-81.9-325.9-13.9c-29.1,67.9,97.9,98.9,34.9,196.9s-151.4,56.5-163,127
			c-26.5,160.7-11.7,234.4,67.5,290c70.2,49.3,188.6,23.1,273.5,6c53-10.7,102.4,1.8,122,3C981.5,663.2,1008.6,599.8,1009.5,566.5z"
			/>
	</g>
	<g>
		<defs>
			<path id="SVGID_5_" d="M702.5,276.2c1.5-8.2,16.9-21.2,17.5-31.5c0.4-8.2,1-20.8,1-30c0-5.8,1.8-22.6,1.5-28.5
				c-0.3-7.1-11.5-25.1-12-32c-0.6-8.7-15-16-15.5-24c-0.9-14.3-14.5-16.5-14-28.2c0.2-6.1,35.9,3.2,36-2.3
				c0.3-28.2,279.5,3.5,279.5,3.5l12,555l-510,17c0,0,60.2-133.2,61.3-173.2c0,0,11.4-39.1,0.7-64.3c-4.2-9.8-18.5-15.3-22-26
				c-4.6-14.1-6.1-18.6-5-33c0.4-5.7,6.9-14.2,8.5-19.5c1.5-5,33.4-9.3,35.5-14c2.8-6.2,47.1-6.1,50-11.5c3.6-6.8,28-8.3,31-13.5
				c6-10.6,22.5-24,22.5-24S697.8,302.6,702.5,276.2z"/>
		</defs>
		<clipPath id="SVGID_6_">
			<use xlink:href="#SVGID_5_"  overflow="visible"/>
		</clipPath>
		<path id="borderIn" clip-path="url(#SVGID_6_)" d="M674.1,93.7c38.7,6.5,35.7,8.6,44.2,8.7c5.3,0.1,3.5-3.2,8.4-4.2
			c4.4-0.9,10.8,1,17.2,0.8c6.2-0.1,12.5-2.3,17.8-2.2c5,0.1,11.3,5.1,16.3,5.3c19.2,0.8,39.4-0.4,54.3,0
			c18.3,0.5,29.3,2.5,29.3,2.5s37.8,6.8,55.6,22.2c13.6,11.8,8.2,33,8.2,33.3c0,0.5,1.7,22.3,0,41c-1.1,12.3-4.7,18.3-6,24.3
			s7.8,35.3,8.3,55.5c0.2,7.9,1.3,22.3,0.8,38.1c-0.9,24.5-3.6,51.3-2,54.7c2.7,5.6,17.7,11.3,22.3,18.3s1.8,29.9-2.4,36.3
			c-1.2,1.8-1.9,6.5-3.8,9.2c-2.1,2.8-6.6,3.6-9,6c-3.3,3.2-14.4,31-16,33.3c-4,5.8-14,25-13.8,31.5c0.1,1.9-1.5,7.6,1.9,14.7
			c3,6.2,17.3,7.2,21.5,14c4.4,7.2,13.1,14.1,13.2,20c0.1,3.8-8.2,5.5-8,10.7c0.2,5.2,6.5,5.8,12.5,12.5c2,2.2,0.9,5.8,3.2,8.2
			c2.9,3,7.6,5.2,9.8,8.2c3.2,4.4,5,10.7,4.8,13.3c-0.5,10.2-11,13.2-13.9,15.5c-4.2,3.3-16.1,2.1-31.1,0.3
			c-7.3-0.9-14.9,3-21.5,3.2c-10,0.3-18.6-3-26.3-5c-8.6-2.3-15.1-10.5-20.8-15.5c-4.5-3.9-12.4-3.1-23.8-3
			c-4.5,0.1-12.8-4.5-17.7-4.2c-21.8,1.3-26.7,4.2-37.2,7.2S752,619.6,727.6,627c-18.2,5.6-40.3,8.5-57.2,11.8
			c-7.3,1.4-13.1,3.7-18,5.1c-4.7,1.4-7.9,3.3-12.8,3.4c-5.2,0.1-12.3-1.8-17.5-2c-8.1-0.3-14.7,2.3-21.3-0.5
			c-11.9-5-20.8-17.5-23.8-21.2c-6.8-8.3-20.3-49.8-22-66s10.8-85.5-1.5-109.5s-28-25-32-60c-8.8-82,71-13.5,161.5-105.5
			S635.5,87.2,674.1,93.7z"/>
	</g>
</g>
<g id="trees">
	<g id="tree2">
		<path id="treeTrunk2" d="M535.5,727.2c-36,1-78-7.2-65.7-19.3c24-23.7,36.3-100.3,17.7-196.7c5.3-21.7,52.3-34.3,53.7-5.3
			c-29,51.7,24.4,180.9,43,196.7C598.9,715,569.5,726.2,535.5,727.2z"/>
		<path id="treeTop2" d="M475.5,520.2c-8.5,6.3-36,26.5-48,5.5c-4.6-8-4-22-6.5-34.6c-1.7-8.5-6.7-14.7-8.2-24.3
			c-2.1-13.3-3.4-27.5-7.9-40.6c-2.4-6.9-4.7-16.1-4.2-23.5c0.3-4.9,3.2-8.1,3.7-12.8c1.2-10.2,1.3-19.5,4.3-27.3
			c4.6-12.1,10.7-18.9,10.7-18.9s7-5.3,12.5-15.1c3.8-6.7,2.7-10.9,6.7-18.8c3-5.9,7.9-10,11.2-15.6c6.1-10.7,10-21.4,10-21.4
			s21-24,40.5-29s26.5-6,37,0c5.7,3.2,22.3,0.8,39.3,2.2c14.5,1.1,29.2,5.8,38.7,10.8c12,6.5,22.8,19,27,36.2
			c2.9,12,0.2,28.1,2.5,37.8c2,8.5,6,16.6,7.5,25.2c2.7,15.1,1.9,30.2-1,41.3c-1.8,7.2,3.1,15.6,4.3,25.3
			c1.7,14.1-0.3,29.1-7.3,31.2c-4.7,1.4-7.5,17.8-14,29.5c-10.3,18.4-24,34.5-24,34.5s-7,21.5-19,22.5s-6.5-1.5-26-18
			S484,513.9,475.5,520.2z"/>
		<path id="treeBranches2" d="M530,290.6c-0.4-1.8-1.7-7.3-3.7-10.3c-2.4-3.4-6.7-5.6-6.8-7c-0.7-7.5,8.8-3.3,12.5,1.2
			c1.9,2.3,4.2,10.4,4.7,19.3c0.7,14.6-1.2,32.2-0.7,36.2c0.8,6.5,2.2,6.8,6.2,1.7s20.9-10.1,27.4-4.4c6.5,5.7-11.1,2.2-15.3,3.4
			c-4.2,1.2-7,2.7-11.5,9.4c-4.5,6.7-4,10-9.7,6.5C527.5,343,533.5,306,530,290.6z M467.5,301.2c-3.5-3.2,1-9.7,5.2-5.2
			c4.2,4.5,16,11.2,16,20.7s-30.2,35.5-31.2,40.7c-1,5.2,10.5,3.5,12,7.7c1.5,4.2-3,7.8-13,2.2s-3.5-13.3,0.3-19.7
			c3.8-6.3,19.8-17.3,22.7-26.7C482.3,311.5,471,304.3,467.5,301.2z M536.5,393.2c2.4-1.2,10.7,2.7,19.7,7.8
			c9,5.2,35.8,4.7,38.3,9.5c2.5,4.8,4.8,6.8,2.2,10.3c-2.7,3.5-3.9-3.7-14.3-7.2c-7.2-2.4-22.1-4.8-22.7-5
			C558.3,408.2,543.6,400.8,536.5,393.2z M572.8,475.9c0.1,5.3,1.5,9.8,0.4,13.9c-1,3.5-4.1,6.8-7.4,7.8c-6,1.7-8.3-6.1-14.6-12.3
			c-5.7-5.5-15.5-9.2-18.4-11.4c-6.1-4.6,9.9-3.9,12.4-2.3s15.6,11.5,17.8,16s4.3-1.6,3.6-6.5c-0.3-2.3-1-11.2-0.5-20
			c0.2-2.5,1.7-5.1,2-7.4c0.9-7.1,0.9-12.5,0.9-12.5s6.1,8.9,4.4,18.9C572.7,463.9,572.7,470,572.8,475.9z M467.7,483.4
			c2.5-14.5,0.4-11.9-2.8-19.6c-2.2-5.2-7.3-9.3-9.9-11.2c-6.5-4.7-1.5-10.9-1.5-10.9s10.1,8.7,16.6,17.5c3.8,5.2,5.1,10.8,5.9,13.9
			c2.1,8.5,7.7,8.9,10.6,0.5c2.9-8.5-0.6-19.1,4.1-22.5c4.7-3.5,7.1,0.7,4.7,4.5c-2.4,3.7,0.8,19.8-5.4,26.2
			c-6.2,6.4-11.7,9.2-16.1-1.2C470.8,482.6,465.3,497.8,467.7,483.4z M479.5,387.1c-4.3-3.9-7.1-6.7-14.8,1.1
			c-1.8,1.9-4.1,4.5-6.3,7.3c-1.1,1.4-4.1,2.4-5.2,3.9c-6.2,8-10.2,16.8-10.2,16.8s0.3-3,1.2-5.9c1-3.1,2.8-6.1,2.8-6.1
			s-2.3,1.6-5,2.4c-3.1,0.9-6.5,1.1-6.5,1.1s3.9-1.2,7.6-4.6c1.8-1.6,2.3-4.2,4.5-6.5c1-1.1,5.8-8.3,6.9-9.4
			c6.5-6.3,10.4-7.8,12.3-8.8c4.2-2.3,12.4-5.8,16.1,1.8C486.5,387.8,483.7,391,479.5,387.1z"/>
	</g>
	<g id="tree1">
		<path id="treeTrunk1" d="M666.2,726.7c27.3-28.8,24.9-89.5,10.3-163.5c-14.7-74-8.4-68.1-1.8-70.8c6.7-2.7,53.4-25.5,45.1,1.8
			c-8.3,27.3,14.7,199,59.7,224.3S639,755.4,666.2,726.7z"/>
		<path id="treeTop1" d="M728.2,499.7c-26.7-7.8-58.2-5.4-71.6,5.4c-17.5,14-26.6,21.6-36.1,9.1s-18.3-66.5-25.8-86
			c-4.2-11-26.1-19.7-38-36.4c-9.1-12.8-11-28.8-4.8-46.6c4.6-13,13.1-28.4,21.8-44.1c7.5-13.7,14.7-27.8,24.4-38.3
			c14.1-15.3,32.1-22.6,43.3-23.6c10.3-0.9,21.1-10.6,35.1-14.9c8.6-2.6,20.2,0.7,28.3-1.9c14-4.4,26.8-3.7,34.4-7.5
			c12.1-6,26.1-20.1,41.5-17c8.8,1.8,20.6,19.5,26.4,22.8c16,9,48.5,37,45.5,55.5s19,40.5,25,54c3.1,6.9,8.9,16.1,6.9,27.3
			c-2,10.7-12.3,20.8-16.4,31.8s-11.3,13.1-16.9,23.3c-4.9,8.9-7.2,21.1-16.3,29.9c-8.5,8.2-32.9,18.4-37.9,22.4
			c-16.5,13-5.3,58.9-35.3,53.4C754.7,516.8,736.4,502.1,728.2,499.7z"/>
		<path id="treeBranches1" d="M758.8,278.8c0.9-0.7,5.8,0.3,11.3,0c3.9-0.3,7.4-2,12.3-2.1c13.4-0.3,28.5-0.4,34.6-3.5
			c0,0-22.5,14.4-26.3,23c6-2.3,18.5-3.3,22.5-0.9c-19.1,10.6-18.4,26.3-19.1,29.6c-4.9-11.3,6.4-25.8,6.3-25.5s-12.6,0.1-18.5,16.1
			c0.1-0.1-7-16.8,15.4-32.6c0,0-7.4,2.1-15.1,2.5c-4.4,0.3-8.6-1.1-12.6-0.9c-4.9,0.3-8.6,1.3-9.1,1
			C758.6,284.6,755.6,281.6,758.8,278.8z M794.6,367.3c-6.1-7.3-14.1-17.6-26.8-18.8c-6.9-0.7-14.5,4.1-25.5,7
			c12.7-20.1,35.1-15.4,51.5,1.2C805,368,816.9,387.4,807,408c-1.9,4-6.1,4.9-9.7,9.2c-2.8,3.3-5,4.5-1.8,9.5c3.2,5-3,26-38.8,22.3
			c37.5-10.7,41.2-18.5,21-35.2C805,421.1,811.6,387.7,794.6,367.3z M673.3,451.4c2.8-1.7,8.3-0.4,10.9-4.1s1.9-9.6-1.4-13
			c-3.3-3.4-9.4-3.9-18.1-7.4c22.5-5.5,29.6,12.9,28,17.5s-4.1,7.4-8,11.3c-5,4.9-9.7,10.1-13,10.9c0-5.4,4.5-6.3,4-10.8
			c-1.5-1.1-8.8,3-9.1,1.6C666.8,456.9,669.5,453.8,673.3,451.4z M658.7,431.1c6.3,4.1,2.1,16.9-1.5,20.6c-0.7,0.7-2.4,1.6-3.6-1
			c1.1-3.3,3.4-6.5,3.6-8.6c1.1-9.7-7.6-8.3-14.3-2.3c-8,7.2-14.3,22.3-8.4,29.5c0,0-10,0.9-11.1-3.8c0,0-5.3,1.9-6.9-2.3
			s0.5-13.5-4.1-25.4c-4.6-12-0.1-20.5,3.8-28.6s18.6-21.6,21.4-27.1c0,0,7.4,9.8,2.6,13c-10.2,7.5-13.4,17.8-15.8,24.6
			c-1.6,4.7-3.9,6.1-3.9,10.9c0,3.6,3.4,7.9,2.5,11.4c-0.7,3.1-1.1,5.4-0.8,6.6c1.6,7.4,4.5,11.4,6,4c0.9-4.4,6.7-17.7,12.8-26.6
			c4-5.9,4.8-9.1,12.1-8.6c0.1,2.6,2.3,4.4,1.4,5.6c-9.9,0.3-8.4,6.9-10.8,8.5C651.6,430.5,656.1,429.3,658.7,431.1z M687.5,347.5
			c-2.4-4.7,5.2-25.2,10.8-40c1.1-3,4.8-13.5,2.2-20.7c-4.3-14.8-25.6-20.8-37.3-4.1c-14.7,20.8,2,26,11.2,5.2
			c-1.2,15.9-7.6,19.7-13.2,19.6c-8.4-0.2-15.6-12.3-5-27.8c17.7-25.7,43.6-6.3,49.2-1.8c15.5,12.3,13.9,6,22.2,6.3
			s13.1,28.3,8.5,39s-23.3,21-18.9-8c6.4,27.9,17.6,4.4,13.9-9.8c-1.8-6.7-9-13.3-17.7-7.6c-12,7.8-12.5,20-14.2,29.2
			c-2.2,11.7-0.1,14.7-3.6,19.8C692,351.9,689.8,352.2,687.5,347.5z M585.5,389.2c-21.3-6-4.5-35.3,2.5-39.5s14.5-1.9,22.5-7.7
			c9.3-6.7,14.4-17.6,15.9-22.2c2.7-8.5-1.2-6.2,0.9-14.5c2.1-8.4,7.1-10,12-8.9c-6.2,2-8.2,6.2-7.3,18.8c1,12.7-8.7,36.7-19.5,38.5
			C601.6,355.5,568.8,363.8,585.5,389.2z"/>
	</g>
</g>
</svg>
