<?xml version="1.0" encoding="UTF-8" standalone="no"?>
<!DOCTYPE svg PUBLIC "-//W3C//DTD SVG 20010904//EN"
              "http://www.w3.org/TR/2001/REC-SVG-20010904/DTD/svg10.dtd">

<svg xmlns="http://www.w3.org/2000/svg"
     viewBox="0 0 1110 440">
  <path id="under" overflow="visible"
        fill="black" stroke="black" stroke-width="1"
        d="M 10.98,6.00
           C 2.37,19.71 2.78,38.37 12.06,51.65
             21.16,65.36 38.81,72.59 54.91,69.20
             64.18,67.32 73.09,62.37 78.88,54.82
             79.73,53.14 83.12,49.44 79.32,51.46
             74.66,52.99 70.19,55.84 65.39,56.26
             53.55,58.19 40.64,51.93 34.87,41.22
             32.87,37.56 31.77,34.15 31.26,30.00
             31.26,30.00 313.01,30.00 313.01,30.00
             313.32,82.62 331.47,134.88 363.81,176.35
             342.15,198.01 320.49,219.68 298.83,241.34
             288.35,239.26 277.09,246.05 274.05,256.29
             270.55,266.45 275.86,278.58 285.68,282.93
             295.30,287.68 308.01,283.98 313.56,274.80
             316.77,269.82 317.81,263.50 316.36,257.75
             316.36,257.75 379.50,194.62 379.50,194.62
             416.69,233.99 467.48,260.17 521.12,267.61
             525.06,268.19 529.03,268.62 533.00,269.00
             533.00,269.00 533.00,306.00 533.00,306.00
             533.00,306.00 518.09,306.00 518.09,306.00
             508.59,295.75 492.12,293.13 479.90,299.93
             474.74,302.54 470.79,306.89 467.43,311.47
             461.66,316.43 453.57,318.59 448.98,324.92
             446.52,328.47 449.18,332.77 452.27,334.87
             457.23,339.06 463.82,341.08 468.32,345.81
             475.78,357.45 491.23,362.99 504.38,358.74
             509.69,357.12 514.57,354.07 518.34,350.00
             518.34,350.00 533.00,350.00 533.00,350.00
             533.00,350.00 533.00,364.65 533.00,364.65
             522.51,374.11 519.78,390.77 526.64,403.10
             529.25,408.26 533.61,412.21 538.20,415.58
             543.15,421.35 545.30,429.43 551.63,434.01
             552.06,434.31 552.52,434.52 553.00,434.67
             553.00,434.67 553.00,434.83 553.00,434.83
             553.47,434.88 553.94,434.92 554.42,434.95
             554.69,434.97 554.97,434.98 555.24,434.98
             555.29,434.98 555.35,434.97 555.40,434.97
             555.53,434.97 555.66,434.96 555.80,434.95
             555.88,434.94 555.95,434.93 556.03,434.92
             556.36,434.88 556.69,434.85 557.00,434.79
             557.00,434.79 557.00,434.69 557.00,434.69
             557.19,434.62 557.37,434.55 557.55,434.45
             560.40,433.07 562.26,430.35 563.98,427.81
             566.53,423.97 568.51,419.77 571.32,416.10
             572.45,414.64 574.20,413.89 575.54,412.65
             582.43,407.00 586.77,398.36 587.11,389.45
             587.56,380.64 584.13,371.74 577.89,365.51
             577.56,365.06 576.82,364.80 577.00,364.14
             577.00,364.14 577.00,350.00 577.00,350.00
             577.00,350.00 591.64,350.00 591.64,350.00
             597.57,356.40 606.21,360.18 614.94,360.14
             623.48,360.21 631.96,356.64 637.89,350.50
             639.50,348.91 640.81,347.07 642.12,345.25
             644.20,343.16 646.89,341.81 649.38,340.27
             653.08,338.04 657.01,335.99 659.98,332.78
             661.55,331.08 662.54,328.59 661.69,326.32
             660.63,323.45 658.04,321.56 655.63,319.86
             651.61,317.08 647.13,315.01 643.22,312.06
             641.68,310.93 640.92,309.12 639.65,307.75
             634.00,300.86 625.36,296.52 616.45,296.18
             607.88,295.74 599.21,298.97 593.00,304.91
             592.58,305.23 592.26,305.78 591.80,306.00
             591.80,306.00 577.00,306.00 577.00,306.00
             577.00,306.00 577.00,269.00 577.00,269.00
             611.14,265.90 644.59,255.43 674.40,238.49
             695.13,226.74 714.10,211.90 730.50,194.62
             751.54,215.66 772.61,236.71 793.63,257.76
             791.90,264.61 793.76,272.22 798.46,277.50
             803.07,282.84 810.37,285.69 817.38,284.87
             824.40,284.16 830.92,279.81 834.27,273.61
             837.69,267.51 837.90,259.77 834.84,253.49
             831.85,247.14 825.63,242.45 818.70,241.31
             816.21,240.89 813.65,240.90 811.17,241.34
             789.51,219.68 767.85,198.02 746.19,176.36
             767.05,149.51 782.14,118.21 790.15,85.17
             794.54,67.12 796.84,48.57 796.99,30.00
             796.99,30.00 1078.74,30.00 1078.74,30.00
             1078.56,31.56 1078.28,33.01 1077.88,34.48
             1077.34,36.47 1076.57,38.42 1075.67,40.19
             1074.25,42.99 1072.38,45.57 1070.10,47.84
             1067.85,50.08 1065.25,51.96 1062.36,53.40
             1060.30,54.44 1058.13,55.22 1055.85,55.77
             1055.09,55.94 1054.04,56.16 1053.15,56.27
             1051.23,56.56 1048.97,56.64 1047.05,56.51
             1045.27,56.40 1043.52,56.13 1041.89,55.73
             1040.09,55.31 1038.08,54.60 1036.42,53.83
             1035.12,53.22 1033.89,52.47 1032.49,52.09
             1031.17,51.61 1029.85,51.14 1028.52,50.67
             1029.67,52.43 1030.71,54.28 1031.92,55.99
             1039.11,64.10 1049.56,69.21 1060.38,69.90
             1071.18,70.68 1082.21,67.04 1090.44,60.00
             1098.63,53.08 1103.97,42.90 1105.02,32.23
             1105.96,23.19 1103.82,13.89 1099.10,6.13
             1098.68,5.83 1097.92,6.08 1097.37,6.00
             1097.37,6.00 185.37,6.00 10.98,6.00 Z
           M 687.33,29.95
           C 687.40,29.95 687.48,29.97 687.58,30.00
             687.58,30.00 774.53,30.00 774.53,30.00
             774.46,37.64 774.00,45.14 773.14,52.76
             771.43,67.82 768.11,82.90 763.33,97.25
             760.93,104.47 758.16,111.55 755.04,118.44
             750.37,128.78 744.85,138.83 738.59,148.39
             735.94,152.42 733.11,156.44 730.17,160.34
             730.17,160.34 667.26,97.43 667.26,97.43
             679.57,77.58 686.46,54.40 686.96,31.05
             687.00,30.59 686.83,29.93 687.33,29.95 Z
           M 336.23,30.00
           C 336.23,30.00 423.01,30.00 423.01,30.00
             423.34,53.72 430.25,77.27 442.73,97.43
             421.76,118.40 400.80,139.37 379.83,160.34
             352.57,124.42 336.86,79.81 335.57,34.85
             336.00,33.46 334.47,30.12 336.23,30.00 Z
           M 437.02,30.00
           C 437.02,30.00 510.16,30.00 510.16,30.00
             491.09,49.07 472.02,68.15 452.94,87.22
             442.81,69.77 437.34,49.92 437.02,30.00 Z
           M 599.83,30.00
           C 599.83,30.00 672.98,30.00 672.98,30.00
             672.86,37.43 672.02,44.88 670.48,52.27
             667.91,64.50 663.36,76.39 657.06,87.23
             637.98,68.15 618.90,49.08 599.83,30.00 Z
           M 577.00,41.11
           C 598.92,63.03 620.84,84.96 642.76,106.88
             633.85,116.81 623.15,125.27 611.36,131.67
             604.66,135.32 597.46,138.37 590.18,140.63
             586.65,141.73 583.25,142.62 579.65,143.39
             578.77,143.58 577.89,143.76 577.00,143.93
             577.00,143.93 577.00,41.11 577.00,41.11 Z
           M 533.00,41.12
           C 533.00,41.12 533.00,143.93 533.00,143.93
             533.00,143.93 533.00,143.93 533.00,143.93
             509.05,139.43 486.43,127.19 469.54,109.37
             467.49,107.81 466.76,106.23 469.38,104.74
             469.38,104.74 533.00,41.12 533.00,41.12 Z
           M 457.33,116.79
           C 457.33,116.79 457.59,117.07 457.59,117.07
             457.59,117.07 457.73,117.23 457.73,117.23
             477.36,138.72 504.29,153.37 533.00,158.15
             533.00,158.15 533.00,246.44 533.00,246.44
             494.60,242.63 456.88,228.27 425.61,205.35
             414.87,197.53 404.64,188.53 395.39,178.73
             395.39,178.73 457.33,116.79 457.33,116.79 Z
           M 652.68,116.79
           C 673.32,137.44 693.97,158.08 714.62,178.73
             702.92,191.13 689.69,202.20 675.49,211.52
             670.72,214.65 665.94,217.53 660.96,220.28
             651.04,225.75 640.52,230.51 629.92,234.36
             623.31,236.76 616.55,238.85 609.77,240.60
             605.91,241.59 601.81,242.53 597.82,243.32
             590.91,244.70 583.97,245.73 577.00,246.43
             577.00,246.43 577.00,158.15 577.00,158.15
             600.33,154.24 622.53,143.89 640.52,128.55
             644.82,124.89 648.88,120.96 652.68,116.79 Z" />
</svg>
